# xmcd CD database file
#
# Track frame offsets:
#	150
#	24294
#	52743
#	65051
#	91987
#	121800
#	148633
#	173803
#	205292
#	223755
#	259636
#	270606
#	294452
#	319167
#
# Disc length: 4659 seconds
#
# Revision: 0
# Processed by: cddbd v1.5.2PL0 Copyright (c) Steve Scherf et al.
# Submitted via: CDex 1.70beta2
#
DISCID=cd12310e
DTITLE=Lemke-Nendza-Hillmann - Tria Lingvo
DYEAR=2009
DGENRE=Jazz
TTITLE0=With A Pirate Smile
TTITLE1=Steve's Workout
TTITLE2=Promenade à Trois
TTITLE3=Evergreenery
TTITLE4=Mr. Funny Hat
TTITLE5=Holygroundmaybeslippery
TTITLE6=News From Wolverhampton
TTITLE7=Cancionita
TTITLE8=Berner Wogranismus
TTITLE9=Zeitenwechsel
TTITLE10=Eptemeenklee
TTITLE11=While You Took Care
TTITLE12=Steve's Wonderous Walk
TTITLE13=Acid Tequila Nut
EXTD=YEAR: 2009
EXTT0=
EXTT1=
EXTT2=
EXTT3=
EXTT4=
EXTT5=
EXTT6=
EXTT7=
EXTT8=
EXTT9=
EXTT10=
EXTT11=
EXTT12=
EXTT13=
PLAYORDER=
